<svg id="svg" version="1.1" xmlns="http://www.w3.org/2000/svg" xmlns:xlink="http://www.w3.org/1999/xlink" width="400" height="402.29007633587787" viewBox="0, 0, 400,402.29007633587787"><g id="svgg"><path id="path0" d="M73.855 127.762 C 70.310 128.644,65.364 135.716,60.302 147.137 C 59.837 148.187,59.076 149.905,58.611 150.954 C 58.146 152.004,57.376 153.893,56.899 155.153 C 55.685 158.361,55.498 158.843,55.050 159.924 C 54.833 160.448,54.281 161.908,53.824 163.168 C 53.366 164.427,52.834 165.756,52.641 166.121 C 52.448 166.485,52.290 167.119,52.290 167.530 C 52.290 167.940,52.118 168.382,51.908 168.511 C 51.698 168.641,51.527 169.132,51.527 169.603 C 51.527 170.073,51.386 170.621,51.214 170.821 C 51.042 171.020,50.166 173.502,49.266 176.336 C 48.367 179.170,47.477 181.787,47.289 182.151 C 47.101 182.516,46.947 183.076,46.947 183.397 C 46.947 183.718,46.792 184.278,46.602 184.643 C 46.413 185.007,46.050 186.078,45.795 187.023 C 45.541 187.968,45.200 189.084,45.038 189.504 C 44.876 189.924,44.533 191.040,44.275 191.985 C 44.017 192.929,43.674 194.046,43.511 194.466 C 43.349 194.885,43.002 196.002,42.740 196.947 C 41.673 200.790,41.495 201.363,41.175 201.999 C 40.990 202.363,40.840 203.083,40.840 203.598 C 40.840 204.114,40.668 204.641,40.458 204.771 C 40.248 204.901,40.076 205.428,40.076 205.944 C 40.076 206.459,39.921 207.179,39.732 207.543 C 39.542 207.908,39.179 208.979,38.924 209.924 C 38.670 210.868,38.329 212.071,38.168 212.595 C 38.007 213.120,37.683 214.280,37.449 215.172 C 37.215 216.064,36.828 217.524,36.590 218.416 C 36.351 219.308,36.019 220.553,35.852 221.183 C 35.685 221.813,35.341 223.101,35.089 224.046 C 34.836 224.990,34.493 226.279,34.325 226.908 C 33.704 229.247,33.092 231.527,32.738 232.824 C 32.538 233.559,32.241 234.676,32.078 235.305 C 31.916 235.935,31.573 237.223,31.318 238.168 C 31.062 239.113,30.710 240.487,30.534 241.221 C 29.990 243.504,29.353 245.942,28.982 247.165 C 28.786 247.809,28.626 248.654,28.626 249.043 C 28.626 249.431,28.363 250.039,28.042 250.394 C 27.507 250.986,27.705 251.261,30.399 253.669 C 32.017 255.115,33.714 256.650,34.169 257.081 C 34.625 257.511,35.208 257.793,35.466 257.707 C 35.723 257.621,36.566 258.053,37.337 258.665 C 40.755 261.380,44.043 263.371,49.237 265.871 C 51.231 266.831,53.161 267.775,53.525 267.968 C 53.890 268.162,54.524 268.321,54.934 268.321 C 55.344 268.321,55.774 268.473,55.889 268.658 C 56.004 268.844,56.572 269.088,57.152 269.199 C 57.732 269.311,58.893 269.604,59.733 269.850 C 66.053 271.704,84.982 271.944,86.813 270.194 C 87.012 270.003,87.563 269.847,88.035 269.847 C 88.508 269.847,89.290 269.698,89.772 269.514 C 90.254 269.331,91.336 268.977,92.176 268.726 C 93.015 268.475,94.089 268.110,94.561 267.914 C 95.033 267.718,95.806 267.402,96.279 267.213 C 97.765 266.617,102.449 264.491,103.201 264.071 C 103.597 263.850,104.499 263.341,105.205 262.941 C 105.911 262.541,107.111 261.861,107.872 261.430 C 108.633 260.999,109.878 260.171,110.639 259.588 C 111.400 259.006,112.710 258.030,113.550 257.420 C 114.389 256.809,116.423 255.124,118.070 253.675 C 121.387 250.756,121.182 251.429,120.233 246.565 C 119.475 242.684,119.126 241.030,117.939 235.687 C 117.729 234.742,117.385 233.197,117.176 232.252 C 116.966 231.307,116.622 229.761,116.412 228.817 C 116.202 227.872,115.868 226.369,115.670 225.477 C 115.471 224.585,115.128 223.125,114.906 222.233 C 114.259 219.623,113.769 217.670,113.328 215.935 C 113.101 215.043,112.825 213.668,112.715 212.879 C 112.605 212.091,112.361 211.351,112.173 211.235 C 111.986 211.119,111.832 210.443,111.832 209.733 C 111.832 209.023,111.660 208.336,111.450 208.206 C 111.240 208.076,111.069 207.389,111.069 206.679 C 111.069 205.969,110.916 205.294,110.729 205.179 C 110.542 205.063,110.301 204.409,110.192 203.725 C 110.084 203.041,109.791 201.794,109.542 200.954 C 109.293 200.115,109.000 198.868,108.892 198.183 C 108.783 197.499,108.542 196.845,108.355 196.730 C 108.168 196.614,108.015 196.025,108.015 195.420 C 108.015 194.815,107.844 194.214,107.634 194.084 C 107.424 193.954,107.252 193.437,107.252 192.934 C 107.252 192.432,107.098 191.626,106.910 191.144 C 106.722 190.662,106.358 189.494,106.102 188.550 C 105.846 187.605,105.505 186.403,105.344 185.878 C 105.182 185.353,104.842 184.151,104.587 183.206 C 104.332 182.261,103.969 181.190,103.780 180.826 C 103.590 180.461,103.435 179.901,103.435 179.580 C 103.435 179.260,103.281 178.699,103.093 178.335 C 102.905 177.970,102.197 175.868,101.520 173.664 C 100.844 171.460,100.150 169.313,99.980 168.893 C 99.809 168.473,99.451 167.443,99.184 166.603 C 98.917 165.763,98.562 164.913,98.395 164.714 C 98.228 164.514,98.092 164.040,98.092 163.659 C 98.092 163.278,97.933 162.668,97.739 162.304 C 97.545 161.939,96.487 159.323,95.388 156.489 C 93.651 152.011,91.093 146.069,90.129 144.275 C 86.077 136.734,84.676 134.527,82.068 131.578 C 79.556 128.738,76.199 127.178,73.855 127.762 " stroke="none" fill="#f35b1c" fill-rule="evenodd"></path><path id="path1" d="M258.964 5.107 C 249.994 7.608,240.511 19.579,229.151 42.740 C 226.769 47.595,225.947 49.347,224.132 53.435 C 223.713 54.380,223.006 55.969,222.563 56.966 C 222.119 57.963,221.412 59.552,220.992 60.496 C 220.573 61.441,219.902 62.944,219.502 63.836 C 218.641 65.756,209.413 88.993,208.361 91.889 C 206.671 96.544,206.015 98.326,205.727 99.046 C 205.558 99.466,205.214 100.410,204.962 101.145 C 204.710 101.880,204.365 102.824,204.197 103.244 C 204.029 103.664,203.548 104.952,203.128 106.107 C 202.708 107.261,202.070 108.979,201.710 109.924 C 201.350 110.868,200.913 112.071,200.739 112.595 C 200.565 113.120,199.035 117.586,197.339 122.519 C 191.310 140.058,182.715 166.196,179.392 177.099 C 178.913 178.674,178.217 180.906,177.847 182.061 C 177.477 183.216,176.619 185.964,175.941 188.168 C 175.262 190.372,174.452 192.948,174.140 193.893 C 173.829 194.838,173.436 196.126,173.269 196.756 C 173.101 197.385,172.592 199.103,172.137 200.573 C 171.302 203.275,170.956 204.448,170.282 206.870 C 170.078 207.605,169.538 209.408,169.084 210.878 C 168.629 212.347,168.090 214.151,167.886 214.885 C 167.212 217.308,166.866 218.481,166.031 221.183 C 165.576 222.653,165.037 224.456,164.832 225.191 C 164.158 227.614,163.813 228.786,162.977 231.489 C 162.523 232.958,162.003 234.676,161.822 235.305 C 160.972 238.267,160.603 239.567,159.575 243.225 C 159.383 243.907,158.954 245.453,158.621 246.660 C 158.288 247.867,157.743 249.843,157.410 251.050 C 156.383 254.769,156.076 255.873,155.737 257.061 C 155.557 257.691,155.137 259.194,154.804 260.401 C 154.471 261.608,153.926 263.583,153.593 264.790 C 152.906 267.278,152.460 268.869,151.908 270.802 C 151.356 272.734,150.910 274.325,150.224 276.813 C 149.891 278.020,149.346 279.995,149.013 281.202 C 148.680 282.409,148.260 283.912,148.080 284.542 C 147.900 285.172,147.562 286.374,147.328 287.214 C 147.095 288.053,146.756 289.256,146.576 289.885 C 146.397 290.515,145.988 291.975,145.669 293.130 C 145.349 294.284,144.802 296.260,144.454 297.519 C 144.105 298.779,143.677 300.410,143.504 301.145 C 141.906 307.913,140.729 312.049,138.474 318.822 C 130.602 342.459,113.096 360.649,94.084 364.949 C 87.984 366.328,86.175 366.515,79.008 366.506 C 71.745 366.497,70.929 366.408,64.504 364.914 C 49.270 361.372,34.907 348.504,28.047 332.252 C 27.693 331.412,27.257 330.382,27.080 329.962 C 26.526 328.657,25.489 325.445,25.169 324.046 C 23.261 315.717,22.659 310.269,23.253 306.717 C 24.039 302.018,24.513 299.595,25.554 294.943 C 25.754 294.051,26.106 292.462,26.338 291.412 C 26.569 290.363,27.538 286.412,28.491 282.634 C 29.444 278.855,30.387 275.076,30.587 274.237 C 30.787 273.397,31.115 272.066,31.315 271.279 C 31.515 270.491,31.837 269.203,32.030 268.416 C 32.223 267.629,32.926 264.844,33.592 262.227 L 34.804 257.470 33.398 256.342 C 32.626 255.722,31.021 254.311,29.834 253.205 C 27.233 250.785,27.372 250.667,25.961 256.489 C 25.783 257.223,24.921 260.573,24.046 263.931 C 22.547 269.682,22.267 270.786,21.410 274.332 C 21.219 275.119,20.455 278.168,19.712 281.107 C 18.968 284.046,18.171 287.309,17.940 288.359 C 17.709 289.408,17.357 290.997,17.157 291.889 C 16.957 292.781,16.631 294.241,16.431 295.134 C 16.079 296.707,15.800 298.069,14.848 302.863 C 14.299 305.626,14.312 315.830,14.868 318.391 C 15.088 319.402,15.446 321.131,15.665 322.233 C 16.716 327.531,19.621 335.838,21.905 340.076 C 25.015 345.848,26.995 348.855,30.576 353.244 C 45.022 370.951,68.463 378.912,92.748 374.358 C 93.903 374.141,95.277 373.831,95.802 373.668 C 96.326 373.504,97.529 373.158,98.473 372.899 C 117.046 367.791,134.253 351.456,143.502 330.153 C 144.186 328.578,145.122 326.431,145.583 325.382 C 146.044 324.332,146.649 322.700,146.926 321.756 C 147.203 320.811,147.727 319.094,148.090 317.939 C 149.935 312.064,150.915 308.478,152.681 301.145 C 152.979 299.906,153.369 298.474,154.187 295.611 C 154.367 294.981,154.787 293.478,155.120 292.271 C 155.453 291.064,155.998 289.089,156.331 287.882 C 156.664 286.675,157.093 285.129,157.285 284.447 C 158.018 281.837,158.451 280.303,158.767 279.198 C 158.947 278.569,159.378 277.023,159.725 275.763 C 160.853 271.664,161.510 269.297,161.844 268.130 C 162.159 267.025,162.592 265.492,163.326 262.882 C 163.716 261.493,164.522 258.584,165.466 255.153 C 165.813 253.893,166.254 252.304,166.445 251.622 C 166.637 250.940,166.951 249.823,167.142 249.141 C 167.334 248.459,167.772 246.870,168.116 245.611 C 168.460 244.351,169.177 241.861,169.709 240.076 C 170.242 238.292,170.844 236.231,171.048 235.496 C 171.692 233.166,172.053 231.940,172.901 229.198 C 173.737 226.496,174.082 225.323,174.756 222.901 C 174.961 222.166,175.500 220.363,175.954 218.893 C 176.409 217.424,176.938 215.663,177.131 214.981 C 177.323 214.299,177.639 213.182,177.831 212.500 C 178.024 211.818,178.553 210.057,179.008 208.588 C 179.806 206.007,180.150 204.829,180.876 202.195 C 181.239 200.879,182.100 198.113,183.224 194.656 C 183.599 193.502,184.450 190.754,185.115 188.550 C 185.779 186.345,186.629 183.597,187.002 182.443 C 187.375 181.288,188.074 179.055,188.554 177.481 C 189.035 175.906,190.068 172.643,190.849 170.229 C 191.630 167.815,193.347 162.490,194.665 158.397 C 197.791 148.688,199.691 142.986,203.440 132.061 C 205.133 127.128,207.014 121.632,207.620 119.847 C 208.226 118.063,209.266 115.143,209.930 113.359 C 210.594 111.574,211.273 109.685,211.440 109.160 C 211.730 108.245,212.709 105.612,213.356 104.008 C 213.525 103.588,213.870 102.643,214.122 101.908 C 214.374 101.174,214.719 100.229,214.887 99.809 C 215.055 99.389,215.537 98.101,215.958 96.947 C 217.048 93.953,227.790 66.925,228.662 64.981 C 229.062 64.089,229.733 62.586,230.153 61.641 C 230.573 60.697,231.279 59.108,231.722 58.111 C 243.713 31.143,255.478 13.740,261.720 13.740 C 266.368 13.740,273.796 21.625,281.498 34.733 C 284.769 40.300,290.625 51.745,293.509 58.206 C 293.977 59.256,294.770 61.016,295.272 62.118 C 297.549 67.124,298.212 68.601,298.744 69.847 C 299.683 72.048,300.537 74.140,301.157 75.763 C 301.318 76.183,301.709 77.128,302.028 77.863 C 302.346 78.597,304.096 82.977,305.918 87.595 C 307.739 92.214,309.368 96.336,309.539 96.756 C 309.833 97.478,310.520 99.344,312.177 103.912 C 312.577 105.014,313.370 107.118,313.940 108.588 C 314.510 110.057,315.113 111.689,315.279 112.214 C 315.445 112.739,316.122 114.628,316.784 116.412 C 317.446 118.197,318.413 120.945,318.933 122.519 C 319.454 124.094,320.035 125.725,320.226 126.145 C 320.847 127.512,328.787 151.206,332.825 163.740 C 334.143 167.834,335.859 173.158,336.637 175.573 C 337.416 177.987,338.446 181.250,338.926 182.824 C 339.407 184.399,340.096 186.632,340.458 187.786 C 340.820 188.941,341.507 191.174,341.985 192.748 C 342.463 194.323,343.151 196.555,343.515 197.710 C 343.879 198.865,344.474 200.754,344.838 201.908 C 345.202 203.063,345.639 204.523,345.810 205.153 C 345.981 205.782,346.664 208.101,347.328 210.305 C 348.568 214.420,348.920 215.621,349.565 217.939 C 349.770 218.674,350.309 220.477,350.763 221.947 C 351.218 223.416,351.757 225.219,351.961 225.954 C 352.317 227.231,352.707 228.606,353.425 231.107 C 353.606 231.737,354.126 233.454,354.580 234.924 C 355.035 236.393,355.564 238.154,355.757 238.836 C 356.242 240.557,356.804 242.522,357.230 243.989 C 357.428 244.671,357.757 245.830,357.961 246.565 C 358.787 249.547,359.525 252.220,360.123 254.389 C 360.469 255.649,360.900 257.195,361.080 257.824 C 361.842 260.492,362.205 261.806,362.977 264.695 C 363.426 266.374,363.943 268.263,364.127 268.893 C 364.737 270.986,365.207 272.680,366.031 275.763 C 366.479 277.443,366.997 279.332,367.180 279.962 C 367.791 282.055,368.260 283.749,369.084 286.832 C 369.533 288.511,370.060 290.444,370.255 291.126 C 370.451 291.808,370.771 292.925,370.966 293.607 C 371.161 294.289,371.689 296.221,372.137 297.901 C 372.586 299.580,373.101 301.469,373.281 302.099 C 377.713 317.602,377.909 321.519,374.680 330.153 C 370.718 340.749,358.218 351.196,342.748 356.841 C 342.013 357.110,341.069 357.472,340.649 357.647 C 337.500 358.959,327.521 361.766,321.756 362.961 C 320.601 363.200,318.969 363.544,318.130 363.725 C 316.582 364.059,313.132 364.640,308.969 365.270 C 307.710 365.460,305.543 365.795,304.154 366.014 C 302.766 366.233,300.839 366.412,299.872 366.412 C 298.093 366.412,296.743 366.996,293.704 369.079 C 291.418 370.646,284.524 373.878,281.489 374.806 C 280.019 375.255,278.422 375.783,277.940 375.979 C 277.458 376.175,276.546 376.336,275.914 376.336 C 275.147 376.336,274.854 376.482,275.034 376.773 C 275.314 377.226,278.402 377.129,289.313 376.323 C 300.542 375.494,311.439 374.116,319.084 372.558 C 320.029 372.366,321.746 372.021,322.901 371.792 C 326.393 371.100,328.710 370.526,335.305 368.717 C 338.107 367.949,345.204 365.466,347.901 364.311 C 359.633 359.286,366.955 354.582,373.383 347.941 C 379.440 341.682,382.671 335.746,385.128 326.355 C 386.110 322.601,385.660 314.449,384.147 308.588 C 382.678 302.899,381.450 298.247,380.923 296.374 C 380.746 295.744,380.328 294.241,379.995 293.034 C 379.662 291.827,379.117 289.852,378.784 288.645 C 378.451 287.438,378.036 285.935,377.863 285.305 C 377.689 284.676,377.275 283.173,376.941 281.966 C 376.608 280.759,376.063 278.783,375.730 277.576 C 374.620 273.551,374.387 272.718,374.051 271.565 C 373.867 270.935,373.350 269.046,372.901 267.366 C 372.452 265.687,371.925 263.755,371.729 263.073 C 371.534 262.390,371.214 261.274,371.019 260.592 C 370.823 259.909,370.296 257.977,369.847 256.298 C 369.398 254.618,368.871 252.686,368.676 252.004 C 368.481 251.322,368.161 250.205,367.965 249.523 C 367.770 248.841,367.243 246.908,366.794 245.229 C 365.716 241.196,365.480 240.371,364.504 237.214 C 364.049 235.744,363.520 233.984,363.327 233.302 C 363.135 232.619,362.820 231.503,362.627 230.821 C 362.434 230.138,361.905 228.378,361.450 226.908 C 360.996 225.439,360.466 223.678,360.274 222.996 C 360.081 222.314,359.752 221.155,359.542 220.420 C 359.332 219.685,359.003 218.526,358.810 217.844 C 358.617 217.161,358.088 215.401,357.634 213.931 C 357.179 212.462,356.650 210.701,356.457 210.019 C 355.612 207.027,355.281 205.844,354.986 204.771 C 354.812 204.141,354.418 202.853,354.110 201.908 C 353.801 200.964,353.156 198.903,352.676 197.328 C 352.195 195.754,351.507 193.521,351.145 192.366 C 350.783 191.212,350.096 188.979,349.618 187.405 C 349.140 185.830,348.444 183.597,348.070 182.443 C 347.697 181.288,346.845 178.540,346.177 176.336 C 345.509 174.132,344.145 169.838,343.147 166.794 C 342.148 163.750,340.254 157.910,338.938 153.817 C 336.017 144.732,336.068 144.884,333.205 136.641 C 331.929 132.968,330.045 127.471,329.018 124.427 C 327.991 121.384,326.609 117.433,325.946 115.649 C 325.283 113.865,324.605 111.975,324.438 111.450 C 324.145 110.525,323.151 107.854,322.521 106.298 C 322.351 105.878,321.852 104.547,321.411 103.340 C 320.971 102.133,320.250 100.157,319.810 98.950 C 319.370 97.743,318.873 96.412,318.706 95.992 C 317.330 92.532,316.794 91.071,316.794 90.785 C 316.794 90.600,316.433 89.636,315.992 88.641 C 315.552 87.646,315.036 86.446,314.847 85.973 C 314.658 85.501,314.350 84.728,314.161 84.256 C 313.973 83.783,313.558 82.796,313.239 82.061 C 312.920 81.326,311.287 77.290,309.610 73.092 C 307.933 68.893,306.048 64.342,305.421 62.977 C 304.104 60.109,302.706 57.032,301.303 53.912 C 285.714 19.257,270.619 1.857,258.964 5.107 " stroke="none" fill="#f7f7f8" fill-rule="evenodd"></path><path id="path2" d="M249.022 11.164 L 247.901 12.405 249.141 11.284 C 249.823 10.667,250.382 10.109,250.382 10.043 C 250.382 9.748,250.067 10.008,249.022 11.164 M258.259 260.952 C 258.091 261.121,256.721 261.382,255.217 261.533 C 250.842 261.969,249.071 262.268,248.683 262.635 C 248.484 262.823,247.850 262.977,247.274 262.977 C 246.699 262.977,246.122 263.149,245.992 263.359 C 245.863 263.569,245.421 263.740,245.010 263.740 C 244.600 263.740,243.966 263.892,243.602 264.078 C 243.237 264.263,242.510 264.584,241.985 264.790 C 241.460 264.996,240.601 265.335,240.076 265.544 C 239.100 265.931,236.873 267.031,234.161 268.467 C 233.321 268.911,232.301 269.575,231.894 269.943 C 231.487 270.310,230.929 270.611,230.653 270.611 C 230.378 270.611,230.153 270.753,230.153 270.928 C 230.153 271.102,229.680 271.489,229.103 271.787 C 224.866 273.973,214.972 285.017,212.205 290.649 C 211.896 291.279,211.556 291.880,211.450 291.985 C 211.345 292.090,211.066 292.605,210.830 293.130 C 210.595 293.655,210.018 294.943,209.549 295.992 C 209.079 297.042,208.542 298.199,208.355 298.564 C 208.168 298.928,208.015 299.562,208.015 299.972 C 208.015 300.383,207.844 300.824,207.634 300.954 C 207.424 301.084,207.252 301.685,207.252 302.290 C 207.252 302.895,207.080 303.496,206.870 303.626 C 206.660 303.756,206.489 304.419,206.489 305.099 C 206.489 305.779,206.333 306.499,206.144 306.698 C 205.202 307.689,204.813 325.457,205.651 329.198 C 205.886 330.248,206.182 331.708,206.309 332.443 C 206.436 333.177,206.681 334.122,206.853 334.542 C 207.024 334.962,207.376 336.078,207.634 337.023 C 208.058 338.573,209.060 341.073,209.965 342.838 C 210.152 343.203,210.305 343.747,210.305 344.047 C 210.305 344.347,210.434 344.650,210.592 344.720 C 210.846 344.833,211.479 345.930,213.230 349.292 C 213.520 349.847,214.010 350.512,214.321 350.770 C 214.631 351.028,214.885 351.475,214.885 351.764 C 214.885 352.053,215.020 352.290,215.185 352.290 C 215.350 352.290,215.764 352.762,216.107 353.340 C 218.779 357.845,231.223 369.084,233.539 369.084 C 233.741 369.084,233.963 369.214,234.033 369.372 C 234.154 369.646,238.655 371.915,240.267 372.515 C 240.687 372.671,241.503 372.993,242.080 373.231 C 245.170 374.505,247.356 375.191,248.329 375.191 C 248.744 375.191,249.247 375.345,249.447 375.533 C 249.875 375.939,252.220 376.312,255.916 376.563 C 257.385 376.663,258.960 376.932,259.416 377.161 C 259.976 377.442,261.768 377.485,264.950 377.292 C 267.539 377.136,270.907 377.021,272.436 377.037 C 274.115 377.054,275.126 376.921,274.990 376.701 C 274.865 376.499,275.279 376.336,275.914 376.336 C 276.546 376.336,277.458 376.175,277.940 375.979 C 278.422 375.783,280.019 375.255,281.489 374.806 C 284.744 373.810,291.420 370.631,294.275 368.715 C 295.429 367.941,296.692 367.190,297.082 367.047 C 297.501 366.893,297.702 366.560,297.575 366.230 C 297.441 365.880,297.779 365.426,298.483 365.010 C 302.031 362.914,310.885 352.553,313.725 347.174 C 314.290 346.104,314.935 344.885,315.159 344.466 C 315.382 344.046,315.946 342.844,316.412 341.794 C 316.878 340.744,317.412 339.587,317.599 339.223 C 317.786 338.858,317.939 338.138,317.939 337.623 C 317.939 337.108,318.111 336.580,318.321 336.450 C 318.531 336.321,318.702 335.805,318.702 335.305 C 318.702 334.805,318.874 334.290,319.084 334.160 C 319.294 334.031,319.466 333.282,319.466 332.497 C 319.466 331.711,319.622 330.906,319.812 330.706 C 320.746 329.729,321.083 314.099,320.268 309.542 C 320.025 308.177,319.726 306.416,319.605 305.627 C 319.484 304.839,319.231 304.099,319.044 303.983 C 318.856 303.867,318.702 303.277,318.702 302.672 C 318.702 302.067,318.531 301.466,318.321 301.336 C 318.111 301.206,317.939 300.764,317.939 300.354 C 317.939 299.944,317.787 299.310,317.602 298.945 C 317.416 298.581,317.095 297.853,316.889 297.328 C 315.868 294.737,312.596 288.572,311.737 287.619 C 311.369 287.212,311.069 286.654,311.069 286.378 C 311.069 286.103,310.934 285.878,310.769 285.878 C 310.605 285.878,310.190 285.406,309.847 284.828 C 308.564 282.664,303.135 276.826,299.772 273.995 C 296.439 271.188,288.695 266.680,283.969 264.795 C 283.445 264.586,282.717 264.263,282.353 264.078 C 281.988 263.892,281.268 263.740,280.753 263.740 C 280.238 263.740,279.710 263.569,279.580 263.359 C 279.450 263.149,278.935 262.977,278.435 262.977 C 277.935 262.977,277.420 262.805,277.290 262.595 C 277.160 262.385,276.326 262.214,275.435 262.214 C 274.545 262.214,273.654 262.055,273.454 261.862 C 272.814 261.240,258.809 260.402,258.259 260.952 M23.019 309.733 C 23.021 310.992,23.092 311.462,23.177 310.776 C 23.262 310.090,23.261 309.059,23.173 308.486 C 23.086 307.912,23.017 308.473,23.019 309.733 M14.211 311.832 C 14.211 312.567,14.289 312.867,14.385 312.500 C 14.481 312.133,14.481 311.531,14.385 311.164 C 14.289 310.797,14.211 311.097,14.211 311.832 M385.600 317.557 C 385.600 318.502,385.675 318.888,385.766 318.416 C 385.857 317.944,385.857 317.171,385.766 316.698 C 385.675 316.226,385.600 316.613,385.600 317.557 M376.832 319.084 C 376.832 320.239,376.903 320.711,376.991 320.134 C 377.078 319.556,377.078 318.612,376.991 318.034 C 376.903 317.457,376.832 317.929,376.832 319.084 M366.031 342.557 C 365.103 343.502,364.431 344.275,364.536 344.275 C 364.641 344.275,365.485 343.502,366.412 342.557 C 367.339 341.613,368.012 340.840,367.907 340.840 C 367.802 340.840,366.958 341.613,366.031 342.557 M125.358 356.966 L 124.237 358.206 125.477 357.085 C 126.633 356.040,126.893 355.725,126.598 355.725 C 126.532 355.725,125.974 356.283,125.358 356.966 M77.195 366.693 C 78.192 366.771,79.823 366.771,80.821 366.693 C 81.818 366.614,81.002 366.550,79.008 366.550 C 77.013 366.550,76.198 366.614,77.195 366.693 " stroke="none" fill="#3cc3b3" fill-rule="evenodd"></path></g></svg>